# AST/ASF file generated using VICON BodyLanguage
# -----------------------------------------------
:version 1.10
:name VICON
:units
  mass 1.0
  length 0.45
  angle deg
:documentation
   .ast/.asf automatically generated from VICON data using
   VICON BodyBuilder and BodyLanguage model FoxedUp or BRILLIANT.MOD
:root
   order TX TY TZ RX RY RZ
   axis XYZ
   position 0 0 0  
   orientation 0 0 0 
:bonedata
  begin
     id 1 
     name lhipjoint
     direction 0.78388 -0.462562 0.414208 
     length 3.01181 
     axis 0 0 0  XYZ
  end
  begin
     id 2 
     name lfemur
     direction 0.34202 -0.939693 0  
     length 6.04673  
     axis 0 0 20  XYZ
    dof rx ry rz
    limits (-160.0 20.0)
           (-70.0 70.0)
           (-60.0 70.0)
  end
  begin
     id 3 
     name ltibia
     direction 0.34202 -0.939693 0   
     length 7.211   
     axis 0 0 20   XYZ
    dof rx
    limits (-10.0 170.0)
  end
  begin
     id 4 
     name lfoot
     direction 0.121887 -0.334882 0.934344   
     length 2.13567   
     axis -90 7.62852e-016 20   XYZ
    dof rx rz
    limits (-45.0 90.0)
           (-70.0 20.0)
  end
  begin
     id 5 
     name ltoes
     direction 1.53555e-011 -4.2179e-011 1   
     length 1.05957   
     axis -90 7.62852e-016 20   XYZ
    dof rx
    limits (-90.0 20.0)
  end
  begin
     id 6 
     name rhipjoint
     direction -0.769387 -0.475875 0.426129   
     length 2.92756  
     axis 0 0 0  XYZ 
  end
  begin
     id 7 
     name rfemur
     direction -0.34202 -0.939693 0   
     length 6.35468   
     axis 0 0 -20   XYZ
    dof rx ry rz
    limits (-160.0 20.0)
           (-70.0 70.0)
           (-70.0 60.0)
  end
  begin
     id 8 
     name rtibia
     direction -0.34202 -0.939693 0   
     length 7.37886   
     axis 0 0 -20   XYZ
    dof rx
    limits (-10.0 170.0)
 end
 begin
     id 9 
     name rfoot
     direction -0.101763 -0.279592 0.954711   
     length 2.21478  
     axis -90 -7.62852e-016 -20   XYZ
    dof rx rz
    limits (-45.0 90.0)
           (-20.0 70.0)
  end
  begin
     id 10 
     name rtoes
     direction -1.53494e-011 -4.21851e-011 1   
     length 1.10506   
     axis -90 -7.62852e-016 -20   XYZ
    dof rx
    limits (-90.0 20.0)
  end
  begin
     id 11 
     name lowerback
     direction 0.00747405 0.999267 0.0375481   
     length 2.13259   
     axis 0 0 0   XYZ
    dof rx ry rz
    limits (-20.0 45.0)
           (-30.0 30.0)
           (-30.0 30.0)
  end
  begin
     id 12 
     name upperback
     direction 0.00661626 0.996177 0.0871029   
     length 2.10528   
     axis 0 0 0   XYZ
    dof rx ry rz
    limits (-20.0 45.0)
           (-30.0 30.0)
           (-30.0 30.0)
  end
  begin
     id 13 
     name thorax
     direction 0.00320659 0.997679 0.0680167   
     length 2.11338   
     axis 0 0 0   XYZ
    dof rx ry rz
    limits (-20.0 45.0)
           (-30.0 30.0)
           (-30.0 30.0)
  end
  begin
     id 14 
     name lowerneck
     direction 0.0374841 0.973033 0.227602   
     length 1.42765   
     axis 0 0 0   XYZ
    dof rx ry rz
    limits (-20.0 45.0)
           (-30.0 30.0)
           (-30.0 30.0)
  end
  begin
     id 15 
     name upperneck
     direction 0.00481585 0.989155 -0.146795   
     length 1.47593   
     axis 0 0 0   XYZ
    dof rx ry rz
    limits (-20.0 45.0)
           (-30.0 30.0)
           (-30.0 30.0)
  end
  begin
     id 16
     name head
     direction -0.00292522 0.997206 -0.0746423  
     length 1.48116  
     axis 0 0 0   XYZ
    dof rx ry rz
    limits (-20.0 45.0)
           (-30.0 30.0)
           (-30.0 30.0)
  end
  begin
     id 17 
     name lclavicle
     direction 0.951444 0.305606 0.0368784  
     length 3.01855  
     axis 0 0 0   XYZ
    dof ry rz
    limits (-20.0 10.0)
           (0.0 20.0)
  end
  begin
     id 18 
     name lhumerus
     direction 1 -4.48977e-011 2.61664e-027   
     length 5.52731   
     axis 180 -30 -90   XYZ
    dof rx ry rz
    limits (-60.0 90.0)
           (-90.0 90.0)
           (-90.0 90.0)
  end
  begin
     id 19
     name lradius
     direction 1 -4.48944e-011 8.22157e-027   
     length 3.11059   
     axis 180 -30 -90   XYZ
    dof rx
    limits (-10.0 170.0)
  end
  begin
     id 20
     name lwrist
     direction 1 -4.48976e-011 1.5779e-026   
     length 1.5553   
     axis -1.15221e-014 90 90   XYZ
    dof ry
    limits (-180.0 0.0)
 end
  begin
     id 21 
     name lhand
     direction 1 -4.49025e-011 3.1558e-026   
     length 0.419626   
     axis -2.01367e-014 90 90   XYZ
    dof rx rz
    limits (-90.0 90.0)
           (-45.0 45.0)
  end
  begin
     id 22 
     name lfingers
     direction 1 -4.4904e-011 6.31161e-026   
     length 0.338313   
     axis -4.02734e-014 90 90   XYZ
    dof rx
    limits (0.0 90.0)
  end
  begin
     id 23
     name lthumb
     direction 0.707107 -6.35004e-011 0.707107   
     length 0.485752   
     axis -90 45 2.85299e-015   XYZ
    dof rx rz
    limits (-45.0 45.0)
           (-45.0 45.0)
  end
  begin
     id 24 
     name rclavicle
     direction -0.968876 0.223791 0.105816   
     length 3.04177  
     axis 0 0 0   XYZ 
    dof ry rz
    limits (-10.0 20.0)
           (-20.0 0.0)
  end
  begin
     id 25 
     name rhumerus
     direction -1 -4.48962e-011 -1.01384e-027  
     length 5.25396   
     axis 180 30 90   XYZ
    dof rx ry rz
    limits (-90.0 60.0)
           (-90.0 90.0)
           (-90.0 90.0)
  end
  begin
     id 26 
     name rradius
     direction -1 -4.48955e-011 8.88542e-027   
     length 3.10567   
     axis 180 30 90   XYZ
    dof rx
    limits (-10.0 170.0)
  end
  begin
     id 27 
     name rwrist
     direction -1 -4.48994e-011 1.5779e-026   
     length 1.55283   
     axis -1.15221e-014 -90 -90   XYZ
    dof ry
    limits (-180.0 0.0)
  end
  begin
     id 28
     name rhand
     direction -1 -4.48891e-011 3.1558e-026   
     length 0.498676   
     axis -2.01367e-014 -90 -90   XYZ
    dof rx rz
    limits (-90.0 90.0)
           (-45.0 45.0)
  end
  begin
     id 29
     name rfingers
     direction -1 -4.48972e-011 6.31161e-026   
     length 0.402045   
     axis -4.02734e-014 -90 -90   XYZ
    dof rx
    limits (0.0 90.0)
  end
  begin
     id 30
     name rthumb
     direction -0.707107 -6.34849e-011 0.707107   
     length 0.577259   
     axis -90 -45 -2.85299e-015   XYZ
    dof rx rz
    limits (-45.0 45.0)
           (-45.0 45.0)
  end
:hierarchy
  begin
    root lhipjoint rhipjoint lowerback
    lhipjoint lfemur
    lfemur ltibia
    ltibia lfoot
    lfoot ltoes
    rhipjoint rfemur
    rfemur rtibia
    rtibia rfoot
    rfoot rtoes
    lowerback upperback
    upperback thorax
    thorax lowerneck lclavicle rclavicle
    lowerneck upperneck
    upperneck head
    lclavicle lhumerus
    lhumerus lradius
    lradius lwrist
    lwrist lhand lthumb
    lhand lfingers
    rclavicle rhumerus
    rhumerus rradius
    rradius rwrist
    rwrist rhand rthumb
    rhand rfingers
  end

#!OML:ASF H:\Pregnant\Project 1\Capture day 1\Session 1\femalepreg.ASF
:FULLY-SPECIFIED
:DEGREES
240
root 7.66374 0.855783 27.2965 71.4987 -20.8998 202.667
lowerback 9.58004 8.56987 22.5452
upperback 2.54567 13.6236 2.61205
thorax 1.97339 7.14304 -9.84629
lowerneck -24.5886 11.1106 5.94512
upperneck 29.606 11.1832 8.02387
head 14.0962 6.5096 4.35592
rclavicle -2.8625e-013 4.29375e-014
rhumerus 90.7892 63.2103 -3.79615
rradius 86.9468
rwrist -36.827
rhand -29.1651 -9.73553
rfingers 7.12502
rthumb -2.51112 -39.7005
lclavicle -2.8625e-013 4.29375e-014
lhumerus 36.3251 3.53239 45.8631
lradius 40.7092
lwrist 42.4667
lhand 4.34409 15.0067
lfingers 7.12502
lthumb 29.7442 42.64
rfemur -44.3117 9.58571 34.597
rtibia 129.58
rfoot 9.88006 22.9642
rtoes 4.91333
lfemur -62.1345 64.3024 10.3279
ltibia 144.257
lfoot 17.6281 -28.1828
ltoes 17.3106
241
root 7.65891 0.8596 27.3098 71.4173 -20.6515 203.07
lowerback 9.49745 8.64779 22.549
upperback 2.46913 13.7212 2.68499
thorax 1.94493 7.18209 -9.75497
lowerneck -24.5322 11.0169 5.81967
upperneck 29.5032 11.0784 8.09112
head 14.0282 6.46404 4.3681
rclavicle -1.49486e-013 9.93923e-014
rhumerus 91.9426 63.2277 -2.62358
rradius 86.9587
rwrist -36.8544
rhand -30.5211 -9.97338
rfingers 7.12502
rthumb -3.82068 -39.9189
lclavicle -1.49486e-013 9.93923e-014
lhumerus 36.9428 3.6693 46.7022
lradius 39.8764
lwrist 42.0676
lhand 4.47575 14.6181
lfingers 7.12502
lthumb 29.8698 42.2289
rfemur -44.2669 9.35518 34.7262
rtibia 129.443
rfoot 9.85345 22.7615
rtoes 4.99818
lfemur -62.8953 64.3259 9.9194
ltibia 144.353
lfoot 17.9289 -28.1347
ltoes 18.0379
242
root 7.65356 0.863582 27.3232 71.3366 -20.4016 203.472
lowerback 9.4182 8.72502 22.5617
upperback 2.38143 13.8215 2.7541
thorax 1.90568 7.221 -9.67402
lowerneck -24.4487 10.9231 5.69743
upperneck 29.4102 10.9743 8.15833
head 13.9596 6.41839 4.37873
rclavicle -1.68569e-013 8.98507e-014
rhumerus 93.0573 63.2756 -1.48816
rradius 86.9485
rwrist -36.8818
rhand -31.8739 -10.2684
rfingers 7.12502
rthumb -5.12696 -40.1864
lclavicle -1.68569e-013 8.98507e-014
lhumerus 37.4359 3.72636 47.4351
lradius 39.2301
lwrist 41.7653
lhand 4.51469 14.3001
lfingers 7.12502
lthumb 29.907 41.9041
rfemur -44.2252 9.12935 34.866
rtibia 129.315
rfoot 9.80106 22.5482
rtoes 5.00966
lfemur -63.6191 64.3617 9.5474
ltibia 144.447
lfoot 18.2502 -28.1049
ltoes 18.8512
243
root 7.64766 0.867733 27.3364 71.2579 -20.1511 203.873
lowerback 9.33969 8.80065 22.5783
upperback 2.27838 13.9229 2.82103
thorax 1.85015 7.25809 -9.59952
lowerneck -24.3171 10.8311 5.58336
upperneck 29.3223 10.874 8.22395
head 13.8843 6.37426 4.38512
rclavicle -4.13472e-014 7.4743e-014
rhumerus 94.1445 63.3624 -0.382965
rradius 86.9155
rwrist -36.911
rhand -33.1946 -10.613
rfingers 7.12502
rthumb -6.40205 -40.4962
lclavicle -4.13472e-014 7.4743e-014
lhumerus 37.8111 3.69571 48.0578
lradius 38.7397
lwrist 41.5528
lhand 4.46159 14.0347
lfingers 7.12502
lthumb 29.8563 41.6479
rfemur -44.1897 8.90955 35.0145
rtibia 129.198
rfoot 9.72758 22.3265
rtoes 4.94458
lfemur -64.3296 64.3966 9.17425
ltibia 144.53
lfoot 18.5772 -28.089
ltoes 19.672
244
root 7.64121 0.872071 27.3495 71.1818 -19.9001 204.274
lowerback 9.25712 8.87203 22.5909
upperback 2.1578 14.0203 2.88948
thorax 1.77404 7.29016 -9.5238
lowerneck -24.1151 10.7453 5.48603
upperneck 29.2335 10.784 8.28348
head 13.7962 6.33453 4.3833
rclavicle -7.95139e-014 5.64548e-014
rhumerus 95.231 63.4937 0.712405
rradius 86.86
rwrist -36.9423
rhand -34.4563 -10.9943
rfingers 7.12502
rthumb -7.62003 -40.8371
lclavicle -7.95139e-014 5.64548e-014
lhumerus 38.088 3.58849 48.5881
lradius 38.3468
lwrist 41.3986
lhand 4.32989 13.7931
lfingers 7.12502
lthumb 29.7306 41.4288
rfemur -44.1621 8.69675 35.1709
rtibia 129.091
rfoot 9.63987 22.098
rtoes 4.80643
lfemur -65.0532 64.4145 8.75996
ltibia 144.595
lfoot 18.8924 -28.0833
ltoes 20.4077
245
root 7.63418 0.876622 27.3622 71.1075 -19.6481 204.677
lowerback 9.16432 8.93526 22.5897
upperback 2.01946 14.1064 2.96528
thorax 1.67423 7.31293 -9.43586
lowerneck -23.8188 10.6716 5.416
upperneck 29.1366 10.7132 8.32887
head 13.6883 6.30288 4.36788
rclavicle -1.24042e-013 1.07344e-013
rhumerus 96.3567 63.673 1.83102
rradius 86.783
rwrist -36.9732
rhand -35.6381 -11.3949
rfingers 7.12502
rthumb -8.76053 -41.1931
lclavicle -1.24042e-013 1.07344e-013
lhumerus 38.2812 3.42538 49.0506
lradius 37.997
lwrist 41.2648
lhand 4.13873 13.5492
lfingers 7.12502
lthumb 29.5481 41.2174
rfemur -44.1425 8.49189 35.3353
rtibia 128.994
rfoot 9.54533 21.8635
rtoes 4.60195
lfemur -65.8042 64.4057 8.28247
ltibia 144.638
lfoot 19.1785 -28.0882
ltoes 20.9824
246
root 7.62661 0.881408 27.3744 71.0331 -19.3942 205.08
lowerback 9.05602 8.98583 22.5662
upperback 1.86598 14.1725 3.05408
thorax 1.55038 7.32215 -9.32534
lowerneck -23.4151 10.6161 5.38433
upperneck 29.0273 10.6708 8.35045
head 13.5573 6.28281 4.33384
rclavicle 3.49861e-014 1.03368e-014
rhumerus 97.5664 63.8982 3.00976
rradius 86.6856
rwrist -37.0006
rhand -36.7244 -11.7944
rfingers 7.12502
rthumb -9.80871 -41.546
lclavicle 3.49861e-014 1.03368e-014
lhumerus 38.3997 3.23259 49.4682
lradius 37.6514
lwrist 41.1158
lhand 3.91122 13.2861
lfingers 7.12502
lthumb 29.3309 40.9925
rfemur -44.1285 8.29597 35.5083
rtibia 128.904
rfoot 9.45103 21.6244
rtoes 4.33974
lfemur -66.5797 64.3701 7.74644
ltibia 144.661
lfoot 19.4241 -28.1076
ltoes 21.3592
247
root 7.61848 0.886433 27.3861 70.9559 -19.1371 205.485
lowerback 8.93152 9.02049 22.5188
upperback 1.7027 14.2132 3.15762
thorax 1.40654 7.31579 -9.1894
lowerneck -22.913 10.5818 5.39601
upperneck 28.9058 10.66 8.34307
head 13.4061 6.27558 4.27983
rclavicle -4.45278e-014 1.04163e-013
rhumerus 98.8874 64.1586 4.26937
rradius 86.5685
rwrist -37.0222
rhand -37.7078 -12.1717
rfingers 7.12502
rthumb -10.7574 -41.8763
lclavicle -4.45278e-014 1.04163e-013
lhumerus 38.4478 3.02981 49.8495
lradius 37.3025
lwrist 40.9334
lhand 3.66853 13.0041
lfingers 7.12502
lthumb 29.0992 40.7508
rfemur -44.1162 8.11011 35.6911
rtibia 128.819
rfoot 9.36185 21.3825
rtoes 4.02353
lfemur -67.3593 64.3179 7.18166
ltibia 144.67
lfoot 19.6245 -28.1475
ltoes 21.5442
248
root 7.6098 0.891684 27.3975 70.8726 -18.8757 205.888
lowerback 8.79612 9.0388 22.455
upperback 1.53694 14.2283 3.27149
thorax 1.25144 7.2954 -9.03613
lowerneck -22.3498 10.5662 5.44723
upperneck 28.7786 10.6752 8.30989
head 13.2446 6.27906 4.21003
rclavicle -6.36111e-014 5.32743e-014
rhumerus 100.313 64.4354 5.59939
rradius 86.4316
rwrist -37.0385
rhand -38.5884 -12.5075
rfingers 7.12502
rthumb -11.6067 -42.166
lclavicle -6.36111e-014 5.32743e-014
lhumerus 38.441 2.82902 50.197
lradius 36.955
lwrist 40.7089
lhand 3.42988 12.7106
lfingers 7.12502
lthumb 28.8713 40.4964
rfemur -44.1007 7.93563 35.8847
rtibia 128.736
rfoot 9.28036 21.1412
rtoes 3.65066
lfemur -68.1146 64.2641 6.62979
ltibia 144.674
lfoot 19.7827 -28.2128
ltoes 21.5789
249
root 7.60056 0.897132 27.4087 70.781 -18.6096 206.289
lowerback 8.65898 9.04317 22.3883
upperback 1.37722 14.2231 3.38691
thorax 1.09711 7.26544 -8.88098
lowerneck -21.7829 10.5628 5.52454
upperneck 28.6568 10.7036 8.2625
head 13.0879 6.28848 4.13382
rclavicle 2.8625e-014 3.49861e-014
rhumerus 101.809 64.7048 6.96409
rradius 86.2744
rwrist -37.0543
rhand -39.3748 -12.7865
rfingers 7.12502
rthumb -12.365 -42.4008
lclavicle 2.8625e-014 3.49861e-014
lhumerus 38.4092 2.63747 50.515
lradius 36.6128
lwrist 40.4383
lhand 3.21552 12.4174
lfingers 7.12502
lthumb 28.6665 40.238
rfemur -44.0782 7.77373 36.0891
rtibia 128.651
rfoot 9.20726 20.9042
rtoes 3.2131
lfemur -68.8184 64.2247 6.13077
ltibia 144.68
lfoot 19.9074 -28.305
ltoes 21.5263
250
root 7.59075 0.902747 27.4197 70.679 -18.3385 206.686
lowerback 8.53119 9.0387 22.3366
upperback 1.23428 14.2064 3.49249
thorax 0.959806 7.23285 -8.74367
lowerneck -21.2898 10.562 5.60581
upperneck 28.5557 10.7276 8.21784
head 12.9555 6.29703 4.06478
rclavicle 8.26944e-014 -6.63941e-014
rhumerus 103.309 64.9381 8.30516
rradius 86.0968
rwrist -37.0779
rhand -40.0816 -12.9998
rfingers 7.12502
rthumb -13.0465 -42.5717
lclavicle 8.26944e-014 -6.63941e-014
lhumerus 38.3955 2.45934 50.8105
lradius 36.2788
lwrist 40.1227
lhand 3.03985 12.1355
lfingers 7.12502
lthumb 28.4986 39.9844
rfemur -44.0454 7.62519 36.3042
rtibia 128.564
rfoot 9.14131 20.6761
rtoes 2.69428
lfemur -69.4498 64.2123 5.7158
ltibia 144.696
lfoot 20.0092 -28.4223
ltoes 21.4528
251
root 7.58036 0.90852 27.4307 70.5658 -18.0628 207.079
lowerback 8.42015 9.03064 22.3119
upperback 1.11414 14.187 3.58147
thorax 0.84939 7.2033 -8.63641
lowerneck -20.9171 10.5557 5.67197
upperneck 28.4845 10.7345 8.18736
head 12.8585 6.29923 4.01185
rclavicle 3.05333e-013 -2.22639e-014
rhumerus 104.766 65.1208 9.58066
rradius 85.8994
rwrist -37.1175
rhand -40.7269 -13.1459
rfingers 7.12502
rthumb -13.6685 -42.6771
lclavicle 3.05333e-013 -2.22639e-014
lhumerus 38.428 2.29432 51.0927
lradius 35.9568
lwrist 39.7692
lhand 2.91104 11.8758
lfingers 7.12502
lthumb 28.3755 39.7452
rfemur -44.0003 7.49028 36.5291
rtibia 128.472
rfoot 9.08231 20.4606
rtoes 2.08219
lfemur -69.9963 64.2354 5.40307
ltibia 144.724
lfoot 20.0979 -28.5602
ltoes 21.4154
252
root 7.56943 0.914462 27.4419 70.4412 -17.7834 207.466
lowerback 8.32913 9.02299 22.3194
upperback 1.0188 14.171 3.65153
thorax 0.769797 7.18033 -8.56366
lowerneck -20.683 10.5388 5.7117
upperneck 28.4471 10.7176 8.17482
head 12.8008 6.29183 3.97851
rclavicle -2.22639e-013 -4.77083e-014
rhumerus 106.152 65.2489 10.7718
rradius 85.683
rwrist -37.1789
rhand -41.3284 -13.2304
rfingers 7.12502
rthumb -14.2481 -42.7216
lclavicle -2.22639e-013 -4.77083e-014
lhumerus 38.5191 2.14131 51.3719
lradius 35.651
lwrist 39.3894
lhand 2.82798 11.6455
lfingers 7.12502
lthumb 28.2962 39.5281
rfemur -43.9419 7.36857 36.7619
rtibia 128.374
rfoot 9.02914 20.2611
rtoes 1.36073
lfemur -70.4527 64.2977 5.19908
ltibia 144.768
lfoot 20.1802 -28.7143
ltoes 21.4515
253
root 7.55797 0.92061 27.4532 70.3055 -17.5016 207.849
lowerback 8.25852 9.01877 22.3587
upperback 0.944399 14.1634 3.70446
thorax 0.717156 7.16566 -8.52362
lowerneck -20.5697 10.5082 5.72257
upperneck 28.4397 10.676 8.17493
head 12.7771 6.27325 3.96121
rclavicle 9.54166e-015 2.66371e-014
rhumerus 107.465 65.3329 11.8835
rradius 85.4486
rwrist -37.2608
rhand -41.8999 -13.2658
rfingers 7.12502
rthumb -14.7987 -42.7174
lclavicle 9.54166e-015 2.66371e-014
lhumerus 38.6635 1.99365 51.6569
lradius 35.3663
lwrist 38.9992
lhand 2.78133 11.4493
lfingers 7.12502
lthumb 28.2516 39.3393
rfemur -43.8691 7.25935 37.0001
rtibia 128.271
rfoot 8.98419 20.0791
rtoes 0.532442
lfemur -70.8167 64.4006 5.10455
ltibia 144.825
lfoot 20.2584 -28.882
ltoes 21.5778
254
root 7.54601 0.926996 27.4649 70.1589 -17.2191 208.226
lowerback 8.20617 9.01943 22.4251
upperback 0.883875 14.1665 3.74469
thorax 0.682953 7.15914 -8.50983
lowerneck -20.5366 10.4631 5.71077
upperneck 28.4536 10.6134 8.17571
head 12.777 6.2438 3.95148
rclavicle 2.8625e-014 -1.23246e-014
rhumerus 108.729 65.3894 12.9414
rradius 85.1967
rwrist -37.3559
rhand -42.4519 -13.2693
rfingers 7.12502
rthumb -15.3305 -42.681
lclavicle 2.8625e-014 -1.23246e-014
lhumerus 38.8434 1.84221 51.9532
lradius 35.1077
lwrist 38.6181
lhand 2.7552 11.2893
lfingers 7.12502
lthumb 28.2266 39.1834
rfemur -43.7809 7.16145 37.2406
rtibia 128.162
rfoot 8.95079 19.9148
rtoes -0.389119
lfemur -71.0873 64.5426 5.11568
ltibia 144.896
lfoot 20.3299 -29.0643
ltoes 21.7864
255
root 7.53355 0.933646 27.477 70.0017 -16.9381 208.597
lowerback 8.16879 9.02564 22.5119
upperback 0.830194 14.1814 3.77751
thorax 0.658335 7.15985 -8.51403
lowerneck -20.5398 10.4044 5.68482
upperneck 28.4803 10.5357 8.16419
head 12.7894 6.20464 3.94027
rclavicle -4.13472e-014 -1.13307e-013
rhumerus 109.976 65.4345 13.9803
rradius 84.9275
rwrist -37.4521
rhand -42.9942 -13.2598
rfingers 7.12502
rthumb -15.8527 -42.6308
lclavicle -4.13472e-014 -1.13307e-013
lhumerus 39.0379 1.67783 52.2636
lradius 34.8796
lwrist 38.2658
lhand 2.73193 11.1662
lfingers 7.12502
lthumb 28.2044 39.064
rfemur -43.6765 7.07369 37.4793
rtibia 128.046
rfoot 8.93373 19.7673
rtoes -1.37469
lfemur -71.2636 64.7204 5.22566
ltibia 144.976
lfoot 20.3875 -29.2653
ltoes 22.0471
